<?xml version="1.0" standalone="no"?>
<!DOCTYPE svg PUBLIC "-//W3C//DTD SVG 20010904//EN"
 "http://www.w3.org/TR/2001/REC-SVG-20010904/DTD/svg10.dtd">
<svg version="1.0" xmlns="http://www.w3.org/2000/svg"
 width="512.000000pt" height="512.000000pt" viewBox="0 0 512.000000 512.000000"
 preserveAspectRatio="xMidYMid meet">

<g transform="translate(0.000000,512.000000) scale(0.100000,-0.100000)"
fill="#000000" stroke="none">
<path d="M2850 5114 c-19 -2 -78 -9 -130 -14 -437 -48 -933 -244 -1320 -523
-329 -236 -631 -557 -838 -889 -465 -746 -584 -1599 -322 -2296 50 -133 90
-201 158 -268 123 -122 259 -137 329 -35 47 70 32 174 -33 217 -77 52 -110 98
-152 215 -85 233 -106 362 -106 649 -1 251 11 348 69 575 241 946 1032 1742
1962 1975 203 51 317 64 558 64 248 1 313 -6 509 -55 401 -100 757 -334 958
-628 32 -47 56 -86 55 -88 -2 -1 -49 6 -105 17 -272 53 -622 68 -842 35 -378
-55 -650 -180 -884 -406 -219 -211 -358 -461 -462 -831 -192 -686 -327 -981
-561 -1221 -165 -169 -330 -245 -617 -282 -137 -17 -174 -35 -206 -101 -26
-52 -25 -89 3 -144 34 -68 89 -93 187 -85 351 28 637 153 858 373 259 260 449
645 618 1255 90 325 140 448 249 612 128 192 302 335 515 422 164 67 295 93
516 100 194 7 332 -5 534 -45 80 -16 170 -26 221 -27 76 0 92 3 144 30 69 35
126 103 147 174 18 64 16 166 -6 230 -22 63 -129 226 -217 329 -175 205 -530
436 -834 542 -119 42 -295 85 -425 105 -100 15 -455 28 -530 19z"/>
<path d="M3908 3549 c-505 -49 -845 -275 -1063 -708 -58 -116 -101 -231 -179
-476 -169 -528 -244 -717 -346 -875 -202 -310 -468 -486 -910 -601 -169 -44
-248 -98 -300 -203 -30 -59 -32 -71 -28 -143 5 -101 32 -156 116 -234 108
-101 372 -211 632 -263 541 -109 1122 -16 1674 267 334 171 698 459 903 712
337 418 554 981 604 1572 11 138 11 143 -10 187 -41 84 -133 116 -215 77 -69
-34 -88 -72 -98 -200 -28 -355 -115 -680 -266 -995 -121 -250 -231 -408 -405
-580 -619 -611 -1471 -883 -2197 -702 -160 40 -395 136 -394 161 1 6 59 26
130 46 165 45 251 77 378 139 359 175 609 440 798 845 54 118 125 318 269 763
110 343 212 533 356 661 176 159 412 230 756 231 175 0 424 -22 505 -46 47
-13 55 -19 71 -57 54 -123 190 -151 275 -56 56 61 58 125 9 222 -48 96 -123
160 -231 196 -161 55 -579 84 -834 60z"/>
</g>
</svg>
