<?xml version="1.0" standalone="no"?>
<!DOCTYPE svg PUBLIC "-//W3C//DTD SVG 20010904//EN"
 "http://www.w3.org/TR/2001/REC-SVG-20010904/DTD/svg10.dtd">
<svg version="1.0" xmlns="http://www.w3.org/2000/svg"
 width="512.000000pt" height="512.000000pt" viewBox="0 0 512.000000 512.000000"
 preserveAspectRatio="xMidYMid meet">

<g transform="translate(0.000000,512.000000) scale(0.100000,-0.100000)"
fill="#000000" stroke="none">
<path d="M2464 5096 c-178 -57 -337 -167 -449 -309 -108 -136 -211 -360 -245
-535 -7 -34 -17 -62 -23 -62 -6 0 -66 29 -133 65 -68 36 -134 65 -147 65 -34
0 -68 -29 -141 -123 -138 -179 -213 -349 -251 -571 -19 -114 -19 -334 0 -455
9 -52 14 -96 11 -98 -2 -2 -49 9 -104 26 -112 35 -135 33 -170 -17 -84 -117
-128 -424 -120 -825 2 -119 2 -217 -2 -217 -3 0 -34 9 -68 21 -54 18 -67 19
-93 9 -16 -7 -37 -26 -45 -42 -18 -34 -12 -76 42 -296 206 -844 721 -1419
1472 -1642 385 -114 729 -116 1111 -5 796 231 1334 869 1521 1804 23 112 18
151 -21 171 -26 14 -80 12 -129 -5 -23 -8 -46 -15 -50 -15 -3 0 -5 96 -2 213
8 403 -36 712 -120 829 -35 50 -58 52 -170 17 -55 -17 -102 -28 -104 -26 -3 3
1 36 8 73 20 107 17 419 -5 522 -40 179 -110 343 -207 481 -78 110 -140 171
-175 171 -16 0 -87 -31 -160 -70 l-133 -69 -12 62 c-42 223 -162 463 -303 609
-112 116 -248 200 -401 247 -84 26 -94 26 -182 -3z m194 -186 c270 -109 454
-359 524 -710 l22 -113 -39 -31 c-108 -85 -250 -214 -338 -306 l-98 -102 -57
24 c-75 30 -149 30 -224 0 l-57 -24 -100 104 c-84 87 -167 162 -349 314 -25
21 -25 22 -14 91 49 297 194 546 394 679 74 49 197 103 236 104 13 0 58 -14
100 -30z m-1014 -866 c126 -65 164 -91 288 -198 79 -68 178 -160 222 -204 l78
-80 -43 -30 c-183 -126 -333 -356 -405 -620 -14 -54 -27 -98 -29 -100 -1 -1
-49 20 -106 47 -58 27 -162 70 -232 96 -145 54 -132 39 -164 210 -19 107 -22
340 -4 435 19 105 68 249 114 332 45 84 117 188 130 188 4 0 72 -34 151 -76z
m2031 21 c89 -122 151 -262 187 -419 37 -161 29 -414 -19 -588 l-15 -56 -127
-47 c-69 -26 -173 -69 -230 -96 -57 -27 -105 -49 -107 -49 -2 0 -8 19 -14 43
-47 185 -112 336 -195 453 -53 74 -155 178 -219 225 l-45 32 35 41 c41 48 172
169 303 280 67 57 135 101 240 157 80 43 151 78 156 78 6 1 28 -24 50 -54z
m-1015 -578 c228 -100 389 -275 479 -523 27 -74 68 -252 60 -257 -102 -63
-197 -145 -204 -177 -13 -61 53 -122 108 -101 12 5 61 38 108 74 116 87 264
169 428 238 153 63 538 192 551 184 12 -7 37 -123 51 -240 13 -108 14 -613 1
-680 -7 -36 -11 -41 -67 -64 -183 -76 -471 -204 -624 -277 -96 -46 -177 -84
-181 -84 -4 0 -12 30 -19 66 -38 208 -140 418 -280 576 -91 102 -265 213 -415
264 -89 31 -109 30 -207 -6 -245 -89 -434 -255 -563 -494 -50 -91 -98 -221
-115 -311 -21 -105 -10 -101 -122 -45 -165 83 -561 258 -708 312 -31 12 -59
25 -62 30 -14 21 -20 419 -9 588 9 151 39 352 53 367 7 6 179 -47 366 -114
258 -91 468 -197 624 -314 98 -74 113 -82 140 -73 54 16 85 70 66 116 -10 24
-160 150 -191 160 -14 5 4 111 39 223 65 206 191 380 354 489 68 45 205 106
239 106 14 0 59 -15 100 -33z m50 -1212 c119 -60 230 -155 306 -261 85 -119
164 -320 180 -462 l6 -60 -88 -47 c-169 -91 -290 -159 -421 -237 l-132 -78
-53 33 c-72 47 -382 223 -496 283 l-94 49 6 55 c15 128 67 282 139 404 53 91
201 240 287 290 35 21 96 50 134 66 l70 27 51 -17 c28 -10 75 -30 105 -45z
m-1864 -484 c778 -307 1559 -728 2089 -1126 164 -123 375 -300 375 -314 0 -5
-35 -23 -77 -39 -446 -171 -830 -180 -1268 -30 -266 91 -507 242 -707 441
-249 250 -426 566 -543 975 -37 129 -41 152 -26 152 4 0 75 -26 157 -59z
m3594 46 c0 -8 -13 -60 -29 -118 -90 -318 -208 -569 -374 -792 -121 -164 -322
-349 -497 -460 l-55 -34 -105 94 c-169 152 -428 351 -629 484 -26 16 -24 17
254 177 212 121 646 337 915 455 162 71 493 206 508 206 6 1 12 -5 12 -12z"/>
</g>
</svg>
