<?xml version="1.0" standalone="no"?>
<!DOCTYPE svg PUBLIC "-//W3C//DTD SVG 20010904//EN"
 "http://www.w3.org/TR/2001/REC-SVG-20010904/DTD/svg10.dtd">
<svg version="1.0" xmlns="http://www.w3.org/2000/svg"
 width="512.000000pt" height="512.000000pt" viewBox="0 0 512.000000 512.000000"
 preserveAspectRatio="xMidYMid meet">

<g transform="translate(0.000000,512.000000) scale(0.100000,-0.100000)"
fill="#000000" stroke="none">
<path d="M2185 5104 c-116 -37 -217 -140 -249 -255 -73 -260 140 -587 491
-751 110 -52 158 -54 260 -10 178 74 366 241 442 392 79 158 90 302 33 423
-38 83 -96 141 -180 180 -59 28 -77 32 -152 32 -98 0 -157 -19 -226 -71 l-45
-34 -37 29 c-88 71 -231 99 -337 65z m156 -204 c45 -13 80 -50 114 -122 19
-41 36 -61 60 -72 41 -20 49 -20 90 0 25 11 41 31 63 78 16 34 44 74 61 88 63
54 167 45 220 -18 37 -46 45 -90 31 -162 -30 -146 -156 -295 -322 -382 l-86
-45 -63 30 c-84 40 -203 129 -262 196 -117 133 -147 297 -69 372 45 43 98 55
163 37z"/>
<path d="M1615 4260 c-151 -23 -280 -126 -336 -267 -19 -47 -23 -77 -23 -158
-1 -89 3 -107 29 -165 25 -58 57 -93 274 -312 134 -136 243 -249 240 -252 -2
-2 -30 -16 -61 -30 -183 -86 -284 -295 -234 -486 8 -30 17 -62 21 -71 5 -12
-4 -19 -40 -29 -61 -17 -153 -77 -193 -126 -18 -21 -47 -68 -65 -104 -30 -61
-32 -71 -32 -175 0 -100 3 -116 28 -170 15 -33 35 -67 43 -76 13 -15 8 -20
-58 -51 -231 -111 -316 -390 -185 -606 46 -77 879 -902 977 -969 409 -277 924
-283 1329 -16 106 70 522 477 605 592 292 407 299 925 18 1356 -29 44 -136
161 -293 320 l-247 250 9 110 c20 245 90 496 156 556 55 51 113 142 134 210
18 58 20 89 18 192 -4 114 -6 127 -36 187 -43 86 -85 135 -155 180 -123 80
-287 93 -410 32 -76 -37 -130 -88 -210 -196 -102 -137 -203 -363 -223 -500
l-8 -48 -366 365 c-201 201 -388 379 -416 396 -82 52 -195 76 -290 61z m158
-231 c50 -25 1899 -1865 1978 -1969 68 -89 134 -227 165 -346 38 -143 38 -327
0 -468 -31 -119 -97 -257 -165 -346 -27 -36 -145 -160 -263 -276 -167 -165
-231 -222 -298 -262 -162 -100 -320 -144 -510 -145 -120 0 -191 10 -300 45
-83 26 -207 90 -279 143 -76 56 -852 825 -889 880 -38 58 -47 115 -27 181 28
96 134 165 228 150 58 -10 95 -32 169 -102 60 -58 70 -64 108 -64 35 0 48 6
77 35 32 32 35 40 30 77 -5 37 -22 57 -185 222 -143 144 -183 191 -197 228
-62 166 107 335 272 273 37 -14 81 -51 194 -162 140 -137 148 -143 187 -143
79 0 133 80 99 146 -9 16 -106 119 -217 229 -111 110 -211 218 -222 240 -30
57 -29 138 3 195 35 64 95 103 168 108 102 7 117 -3 322 -204 179 -177 188
-184 226 -184 73 0 127 71 103 136 -6 16 -240 259 -539 559 -517 519 -529 531
-541 582 -24 106 31 212 130 252 44 17 128 13 173 -10z m1644 -55 c71 -44 103
-111 103 -218 0 -99 -17 -141 -90 -221 -92 -101 -160 -277 -197 -505 -10 -60
-20 -110 -23 -110 -3 0 -79 74 -170 165 l-164 164 13 102 c27 215 123 433 253
576 83 89 179 106 275 47z"/>
</g>
</svg>
