<?xml version="1.0" standalone="no"?>
<!DOCTYPE svg PUBLIC "-//W3C//DTD SVG 20010904//EN"
 "http://www.w3.org/TR/2001/REC-SVG-20010904/DTD/svg10.dtd">
<svg version="1.0" xmlns="http://www.w3.org/2000/svg"
 width="512.000000pt" height="512.000000pt" viewBox="0 0 512.000000 512.000000"
 preserveAspectRatio="xMidYMid meet">

<g transform="translate(0.000000,512.000000) scale(0.100000,-0.100000)"
fill="#000000" stroke="none">
<path d="M1499 4418 c-56 -57 -74 -109 -74 -223 0 -108 8 -134 77 -238 27 -41
32 -57 32 -111 0 -50 -6 -72 -27 -109 -15 -25 -27 -54 -27 -65 0 -34 34 -65
70 -65 69 0 124 110 123 243 -1 89 -18 139 -69 210 -29 41 -39 64 -42 106 -6
75 4 119 38 158 77 88 -18 176 -101 94z"/>
<path d="M4676 4280 c-137 -29 -266 -77 -436 -162 -177 -89 -257 -145 -447
-319 -146 -133 -202 -178 -273 -214 -77 -39 -85 -39 -125 -4 -22 19 -47 32
-63 32 -15 0 -71 -25 -124 -56 l-96 -57 -77 36 c-499 231 -1355 59 -2045 -410
-250 -170 -503 -404 -656 -609 -216 -288 -324 -561 -324 -822 0 -142 19 -229
74 -340 99 -201 284 -339 549 -410 51 -14 102 -25 113 -25 12 0 52 -25 90 -57
83 -68 219 -135 334 -164 122 -30 357 -37 508 -15 457 67 920 295 1279 630
178 166 351 413 420 601 56 152 75 322 50 442 l-16 73 30 87 c17 49 38 140 47
203 l18 114 89 52 c116 67 131 86 117 150 -10 47 -10 50 16 72 42 35 141 88
207 110 33 11 132 44 220 72 190 62 303 114 445 207 246 161 435 356 492 505
22 58 23 148 3 187 -52 102 -208 135 -419 91z m279 -140 c13 -11 16 -25 12
-58 -15 -133 -307 -408 -588 -552 -63 -32 -187 -80 -324 -125 -282 -93 -350
-126 -447 -221 -50 -48 -50 -49 -46 -101 5 -51 4 -54 -29 -73 -19 -11 -38 -18
-43 -15 -4 3 -11 22 -15 42 -19 102 -98 243 -184 327 l-50 50 40 24 41 24 26
-25 c41 -39 68 -40 158 -9 111 39 192 96 374 262 85 77 198 170 250 205 164
110 405 214 579 251 82 17 223 13 246 -6z m-2297 -650 c132 -14 243 -44 347
-95 420 -204 470 -669 127 -1185 -177 -267 -404 -486 -722 -698 -512 -342
-1124 -520 -1587 -462 -351 44 -588 218 -658 480 -19 73 -19 241 1 338 85 416
499 905 1039 1229 491 295 1022 438 1453 393z m637 -1342 c-63 -470 -632
-1022 -1275 -1238 -360 -120 -715 -133 -940 -33 l-45 20 95 7 c587 44 1207
319 1711 761 151 132 378 397 435 506 21 42 27 36 19 -23z"/>
<path d="M2250 3424 c-325 -50 -675 -181 -998 -373 -836 -495 -1260 -1255
-939 -1683 347 -463 1382 -319 2226 309 149 111 421 383 514 513 82 115 189
328 217 430 105 379 -74 686 -458 787 -84 22 -122 26 -282 29 -129 2 -214 -1
-280 -12z m487 -143 c397 -82 526 -385 334 -787 -27 -56 -53 -104 -59 -108 -6
-4 -22 0 -34 8 -45 29 -145 54 -252 65 -116 12 -153 26 -160 64 -3 12 -7 68
-9 123 -5 130 -30 187 -96 223 -101 55 -268 35 -585 -70 -368 -121 -577 -254
-662 -420 -23 -45 -28 -72 -34 -167 -6 -102 -11 -119 -43 -185 -20 -39 -69
-110 -109 -156 -198 -228 -237 -291 -246 -397 -6 -85 3 -124 43 -184 l34 -51
-37 6 c-398 67 -559 318 -437 681 133 397 579 836 1130 1111 234 117 523 213
745 247 143 21 365 20 477 -3z m-342 -535 c17 -12 21 -31 26 -138 3 -67 10
-135 16 -149 33 -78 111 -123 233 -134 106 -9 179 -24 223 -47 l38 -19 -48
-61 c-73 -94 -246 -265 -362 -357 -382 -304 -827 -511 -1248 -581 l-131 -22
-75 36 c-44 21 -89 52 -111 76 -32 35 -36 46 -36 93 0 70 39 137 157 270 184
208 229 297 242 482 7 100 9 108 46 160 86 125 290 234 636 339 214 64 352 83
394 52z"/>
<path d="M2315 3149 c-565 -77 -1178 -418 -1549 -860 -151 -179 -267 -389
-311 -563 -28 -109 -23 -136 27 -157 47 -19 79 11 101 97 62 238 215 475 449
700 355 338 825 572 1289 640 167 24 379 16 518 -21 115 -30 145 -26 157 20
11 43 -4 75 -41 91 -97 40 -198 56 -385 59 -102 2 -216 -1 -255 -6z"/>
<path d="M1995 2499 c-353 -51 -672 -364 -653 -638 9 -122 87 -225 207 -273
83 -33 265 -33 371 0 320 101 555 354 554 597 -1 166 -116 284 -304 314 -73
12 -90 12 -175 0z m240 -164 c104 -51 128 -149 67 -279 -49 -105 -167 -217
-292 -279 -119 -58 -210 -80 -310 -75 -229 14 -290 199 -131 398 172 214 484
324 666 235z"/>
<path d="M1955 2275 c-14 -13 -25 -33 -25 -45 0 -11 11 -32 25 -45 20 -21 34
-25 79 -25 48 0 59 -4 86 -30 38 -37 73 -38 106 -4 34 33 26 67 -25 116 -44
41 -92 58 -169 58 -43 0 -58 -5 -77 -25z"/>
<path d="M764 4010 c-34 -13 -83 -81 -99 -134 -19 -62 -19 -181 -1 -232 7 -22
32 -69 56 -104 41 -64 42 -67 38 -140 -2 -58 -8 -82 -25 -107 -28 -39 -29 -77
-3 -103 74 -74 170 51 170 219 0 93 -16 145 -67 214 -32 43 -38 60 -41 113 -5
80 0 101 38 149 38 48 39 86 4 114 -29 23 -38 24 -70 11z"/>
<path d="M96 3399 c-49 -38 -79 -114 -84 -209 -5 -106 6 -149 63 -236 42 -63
45 -73 45 -135 0 -51 -6 -76 -25 -113 -29 -55 -32 -87 -8 -108 50 -43 100 -22
139 59 23 46 30 75 32 138 5 102 -7 145 -63 231 -42 64 -45 72 -45 137 0 71 7
93 46 140 64 76 -22 158 -100 96z"/>
</g>
</svg>
