<?xml version="1.0" standalone="no"?>
<!DOCTYPE svg PUBLIC "-//W3C//DTD SVG 20010904//EN"
 "http://www.w3.org/TR/2001/REC-SVG-20010904/DTD/svg10.dtd">
<svg version="1.0" xmlns="http://www.w3.org/2000/svg"
 width="512.000000pt" height="512.000000pt" viewBox="0 0 512.000000 512.000000"
 preserveAspectRatio="xMidYMid meet">

<g transform="translate(0.000000,512.000000) scale(0.100000,-0.100000)"
fill="#000000" stroke="none">
<path d="M851 5102 c-39 -21 -71 -73 -71 -115 0 -40 34 -98 73 -124 18 -11
145 -85 282 -164 138 -78 266 -152 286 -165 33 -21 46 -47 203 -423 93 -221
166 -408 162 -416 -5 -13 -50 -15 -322 -15 -272 0 -321 -2 -350 -16 -42 -20
-64 -59 -64 -112 0 -92 390 -3433 404 -3459 18 -36 54 -69 89 -82 19 -8 381
-11 1153 -11 1101 0 1126 0 1164 20 39 20 72 58 83 95 14 46 398 3442 393
3471 -4 17 -20 44 -37 60 l-30 29 -1064 5 c-928 4 -1066 7 -1079 20 -8 8 -96
211 -196 450 -208 497 -207 494 -252 537 -32 31 -610 376 -693 414 -51 24 -91
24 -134 1z m3096 -1732 c65 -39 66 -60 18 -502 l-28 -258 -1243 0 -1242 0 -6
43 c-3 23 -20 174 -37 335 -34 323 -33 330 23 377 l30 25 1226 0 c1197 0 1228
-1 1259 -20z m-1452 -1046 c63 -16 110 -41 185 -98 l46 -35 87 59 c101 69 145
84 243 84 129 0 243 -77 303 -203 22 -48 26 -69 26 -151 0 -86 -3 -101 -32
-160 -55 -113 -205 -267 -418 -431 -118 -90 -180 -122 -222 -116 -71 12 -323
207 -482 373 -100 104 -142 175 -162 272 -37 177 84 370 258 411 58 14 103 12
168 -5z m1271 -1301 c-4 -27 -20 -176 -37 -332 -16 -156 -35 -293 -41 -305
-16 -32 -50 -66 -80 -82 -23 -12 -172 -14 -913 -14 -861 0 -887 1 -924 20 -74
37 -79 55 -117 403 -18 171 -34 322 -34 335 l0 22 1076 0 1076 0 -6 -47z"/>
</g>
</svg>
